<svg width="88" height="66.016" fill="none" version="1.1" xmlns="http://www.w3.org/2000/svg"><g transform="translate(-52 -41.984)"><path d="m58 108h14v-34l-20-15v43c0 3.315 2.685 6 6 6z" fill="#4285f4"/><path d="m120 108h14c3.315 0 6-2.685 6-6v-43l-20 15z" fill="#34a853"/><path d="m120 48v26l20-15v-8c0-7.415-8.465-11.65-14.4-7.2z" fill="#fbbc04"/><path d="m72 74v-26l24 18 24-18v26l-24 18z" clip-rule="evenodd" fill="#ea4335" fill-rule="evenodd"/><path d="m52 51v8l20 15v-26l-5.6-4.2c-5.935-4.45-14.4-.215-14.4 7.2z" fill="#c5221f"/></g></svg>
